<svg xmlns="http://www.w3.org/2000/svg" viewBox="0 0 381 121" version="1.1" width="381" height="121">
<path : d= "M 268.75 32.689 C 267.778 32.943 267 34.088 267 35.266 C 267 37.295 252.351 72.33 247.338 82.288 C 246.012 84.921 243.819 87.581 242.464 88.198 C 238.03 90.218 239.854 91 249 91 C 257.479 91 260.489 89.925 255.999 88.5 C 252.899 87.516 251.861 84.715 253.163 80.849 C 255.116 75.047 255.24 75 268.673 75 L 281.102 75 L 282.551 78.468 C 284.757 83.748 284.421 86.851 281.5 88.182 C 276.813 90.318 278.992 91 290.5 91 C 296.825 91 301.997 90.662 301.994 90.25 C 301.99 89.838 300.614 88.718 298.935 87.763 C 295.537 85.829 293.648 82.054 280.42 50.769 C 276.064 40.467 272.05 32.081 271.5 32.135 C 270.95 32.188 269.712 32.438 268.75 32.689 M 314.575 33.167 C 314.341 33.9 313.618 44.85 312.969 57.5 C 312.32 70.15 311.479 81.85 311.1 83.5 C 310.644 85.488 309.34 87.043 307.233 88.11 C 305.484 88.996 304.342 90.008 304.694 90.36 C 305.843 91.509 322 91.086 322 89.906 C 322 89.305 321.155 88.592 320.122 88.322 C 316.551 87.388 315.922 83.705 316.635 67.911 C 317.005 59.71 317.652 53 318.073 53 C 318.494 53 323.204 61.325 328.54 71.5 C 338.792 91.05 340.773 93.187 343.139 87.25 C 345.646 80.958 359.448 53 360.048 53 C 360.772 53 361.987 69.067 361.995 78.75 C 361.999 83.671 361.575 85.425 360 87 C 358.9 88.1 357.55 89 357 89 C 356.45 89 356 89.45 356 90 C 356 91.258 377.659 91.361 378.434 90.107 C 378.738 89.615 377.835 88.924 376.427 88.571 C 372.214 87.514 371.37 83.418 370.031 57.5 C 369.349 44.3 368.587 33.163 368.337 32.75 C 367.065 30.653 365.104 33.807 354.5 55 C 348.17 67.65 342.656 77.988 342.246 77.973 C 341.836 77.958 336.07 67.748 329.433 55.284 C 322.796 42.82 316.834 32.445 316.183 32.228 C 315.533 32.011 314.809 32.434 314.575 33.167 M 43.703 35.096 C 42.854 36.418 35.154 49.65 26.592 64.5 L 11.025 91.5 L 44.666 91.763 C 63.168 91.908 78.47 91.863 78.67 91.664 C 78.87 91.464 71.897 78.97 63.174 63.9 C 54.452 48.83 46.851 35.643 46.282 34.596 C 45.294 32.777 45.179 32.8 43.703 35.096 M 90 33.933 C 90 34.446 90.897 35.15 91.994 35.498 C 96.881 37.049 97 37.679 97 62 C 97 86.321 96.881 86.951 91.994 88.502 C 90.897 88.85 90 89.554 90 90.067 C 90 91.103 112.284 91.383 113.306 90.36 C 113.658 90.008 112.509 88.996 110.752 88.11 C 108.96 87.207 107.26 85.403 106.878 84 C 105.994 80.745 105.994 43.255 106.878 40 C 107.26 38.597 108.96 36.793 110.752 35.89 C 112.509 35.004 113.658 33.992 113.306 33.64 C 112.284 32.617 90 32.897 90 33.933 M 117.65 33.683 C 117.274 34.059 118.328 34.939 119.991 35.638 C 121.654 36.338 123.462 38.084 124.008 39.52 C 125.3 42.918 125.3 81.082 124.008 84.48 C 123.462 85.916 121.654 87.662 119.991 88.362 C 118.328 89.061 117.274 89.941 117.65 90.317 C 118.745 91.411 141 91.128 141 90.019 C 141 89.48 139.863 88.753 138.474 88.404 C 137.084 88.055 135.509 86.951 134.974 85.951 C 133.696 83.563 133.696 40.437 134.974 38.049 C 135.509 37.049 137.084 35.945 138.474 35.596 C 139.863 35.247 141 34.52 141 33.981 C 141 32.872 118.745 32.589 117.65 33.683 M 154 33.759 C 154 34.177 154.91 35.087 156.023 35.782 C 158.931 37.598 157.601 39.657 145.805 51.603 L 135.829 61.706 L 148.963 75.772 C 162.497 90.266 164.968 92 172.09 92 C 176.933 92 177.869 90.501 174.209 88.608 C 171.175 87.039 145 59.889 145 58.311 C 145 57.799 149.613 52.857 155.25 47.33 C 162.068 40.644 166.755 36.872 169.25 36.062 C 175.475 34.041 173.52 33 163.5 33 C 158.275 33 154 33.342 154 33.759 M 180.039 33.75 C 180.06 34.163 181.522 35.402 183.289 36.503 C 185.173 37.679 190.302 44.086 195.698 52.003 L 204.895 65.5 L 204.948 73.685 C 205.014 84.002 204.089 86.477 199.557 88.115 C 197.601 88.823 196 89.761 196 90.201 C 196 91.305 221.75 91.214 222.434 90.107 C 222.738 89.615 221.752 88.905 220.243 88.529 C 214.705 87.147 214 85.595 214 74.788 L 214 64.886 L 221.134 53.693 C 228.654 41.893 233.192 36.391 236.189 35.44 C 240.573 34.049 237.269 33 228.5 33 C 219.588 33 216.435 34.051 221.001 35.5 C 224.377 36.572 225.293 39.533 223.387 43.219 C 220.809 48.204 212.795 60 211.985 60 C 210.619 60 199 41.397 199 39.209 C 199 38.003 199.9 36.455 201 35.768 C 202.1 35.081 203 34.177 203 33.759 C 203 33.342 197.825 33 191.5 33 C 185.175 33 180.017 33.337 180.039 33.75 M 39.753 45.697 C 37.318 49.988 31.797 59.575 27.482 67 C 15.28 87.999 15.025 88.454 15.012 89.25 C 15.005 89.662 28.5 90 45 90 C 61.5 90 75 89.624 75 89.165 C 75 87.734 46.206 38.569 45.165 38.222 C 44.623 38.041 42.187 41.405 39.753 45.697 M 262.75 57.43 C 260.137 63.709 258 69.332 258 69.924 C 258 71.158 277.59 71.472 278.345 70.25 C 278.938 69.29 269.511 46.668 268.362 46.293 C 267.888 46.139 265.363 51.15 262.75 57.43 M 34.5 65.563 C 29 75.197 24.35 83.511 24.167 84.04 C 23.96 84.634 31.875 85 44.917 85 C 56.513 85 66 84.712 66 84.36 C 66 83.373 45.567 48.035 45 48.042 C 44.725 48.045 40 55.929 34.5 65.563 M 36.127 66.962 C 31.657 74.687 28 81.455 28 82.003 C 28 82.627 34.37 83 45 83 C 57.941 83 61.997 82.702 61.986 81.75 C 61.967 80.02 46.497 53.666 45.258 53.253 C 44.706 53.069 40.597 59.238 36.127 66.962 M 40.981 69.232 C 39.066 72.659 37.35 75.809 37.167 76.232 C 36.983 76.654 40.508 77 45 77 C 49.492 77 53.017 76.654 52.833 76.232 C 51.627 73.451 45.44 63 45 63 C 44.704 63 42.895 65.804 40.981 69.232 M 42.685 70.534 C 41.758 72.478 41 74.278 41 74.534 C 41 74.79 42.8 75 45 75 C 47.2 75 49 74.586 49 74.081 C 49 72.848 45.648 67.014 44.935 67.006 C 44.625 67.003 43.612 68.59 42.685 70.534 M 2 117 L 2 121 L 190.5 121 L 379 121 L 379 117 L 379 113 L 190.5 113 L 2 113 L 2 117";/></svg>